<?xml version="1.0" standalone="no"?>
<!DOCTYPE svg PUBLIC "-//W3C//DTD SVG 20010904//EN"
 "http://www.w3.org/TR/2001/REC-SVG-20010904/DTD/svg10.dtd">
<svg version="1.0" xmlns="http://www.w3.org/2000/svg"
 width="888.000000pt" height="888.000000pt" viewBox="0 0 888.000000 888.000000"
 preserveAspectRatio="xMidYMid meet">
<metadata>
Created by potrace 1.14, written by Peter Selinger 2001-2017
</metadata>
<g transform="translate(0.000000,888.000000) scale(0.100000,-0.100000)"
fill="#000000" stroke="none">
<path d="M3843 8160 c-237 -33 -492 -160 -709 -353 l-57 -52 -261 0 c-231 -1
-273 -3 -369 -23 -261 -55 -443 -147 -598 -301 -252 -253 -359 -623 -319
-1106 26 -318 118 -926 206 -1364 2 -14 -15 12 -40 59 -24 47 -61 104 -81 128
-133 154 -328 131 -544 -65 -134 -122 -303 -458 -368 -733 -36 -155 -43 -378
-14 -516 39 -189 92 -288 243 -454 344 -376 756 -748 1337 -1204 399 -313
1102 -821 1323 -956 160 -97 286 -223 342 -340 28 -59 31 -74 31 -160 0 -77
-4 -103 -21 -137 -20 -41 -21 -43 -3 -43 10 0 778 126 1706 280 928 154 1812
301 1963 325 345 57 317 50 324 82 3 16 24 183 46 373 35 302 45 362 80 480
193 660 251 1429 174 2310 -43 504 -145 1098 -271 1580 -48 182 -49 188 -83
385 -95 544 -492 894 -1125 990 -55 8 -173 18 -262 22 l-161 6 -63 96 c-71
109 -205 253 -295 317 -275 197 -621 208 -981 33 -45 -22 -119 -65 -164 -95
-46 -30 -86 -51 -89 -47 -4 5 -29 37 -55 72 -66 87 -178 198 -258 255 -170
122 -396 182 -584 156z"/>
</g>
</svg>
